<svg width="317" height="70" viewBox="0 0 317 70" fill="none" xmlns="http://www.w3.org/2000/svg">
<path d="M0 8.44077H6.10714V14.5479H0V8.44077ZM6.10714 8.44077H12.2143V14.5479H6.10714V8.44077ZM12.2143 8.44077H18.3214V14.5479H12.2143V8.44077ZM18.3214 8.44077H24.4286V14.5479H18.3214V8.44077ZM24.4286 8.44077H30.5357V14.5479H24.4286V8.44077ZM30.5357 8.44077H36.6429V14.5479H30.5357V8.44077ZM30.5357 14.5479H36.6429V20.655H30.5357V14.5479ZM24.4286 14.5479H30.5357V20.655H24.4286V14.5479ZM18.3214 14.5479H24.4286V20.655H18.3214V14.5479ZM12.2143 14.5479H18.3214V20.655H12.2143V14.5479ZM6.10714 14.5479H12.2143V20.655H6.10714V14.5479ZM0 14.5479H6.10714V20.655H0V14.5479ZM36.6429 14.5479H42.75V20.655H36.6429V14.5479ZM30.5357 20.655H36.6429V26.7622H30.5357V20.655ZM36.6429 20.655H42.75V26.7622H36.6429V20.655ZM36.6429 26.7622H42.75V32.8693H36.6429V26.7622ZM36.6429 32.8693H42.75V38.9765H36.6429V32.8693ZM30.5357 32.8693H36.6429V38.9765H30.5357V32.8693ZM30.5357 26.7622H36.6429V32.8693H30.5357V26.7622ZM30.5357 38.9765H36.6429V45.0836H30.5357V38.9765ZM30.5357 45.0836H36.6429V51.1908H30.5357V45.0836ZM24.4286 45.0836H30.5357V51.1908H24.4286V45.0836ZM24.4286 38.9765H30.5357V45.0836H24.4286V38.9765ZM18.3214 38.9765H24.4286V45.0836H18.3214V38.9765ZM18.3214 45.0836H24.4286V51.1908H18.3214V45.0836ZM12.2143 45.0836H18.3214V51.1908H12.2143V45.0836ZM12.2143 38.9765H18.3214V45.0836H12.2143V38.9765ZM6.10714 38.9765H12.2143V45.0836H6.10714V38.9765ZM0 38.9765H6.10714V45.0836H0V38.9765ZM0 45.0836H6.10714V51.1908H0V45.0836ZM6.10714 45.0836H12.2143V51.1908H6.10714V45.0836ZM0 20.655H6.10714V26.7622H0V20.655ZM6.10714 20.655H12.2143V26.7622H6.10714V20.655ZM6.10714 26.7622H12.2143V32.8693H6.10714V26.7622ZM6.10714 32.8693H12.2143V38.9765H6.10714V32.8693ZM0 26.7622H6.10714V32.8693H0V26.7622ZM0 32.8693H6.10714V38.9765H0V32.8693ZM0 51.1908H6.10714V57.2979H0V51.1908ZM6.10714 51.1908H12.2143V57.2979H6.10714V51.1908ZM6.10714 57.2979H12.2143V63.405H6.10714V57.2979ZM6.10714 63.405H12.2143V69.5122H6.10714V63.405ZM0 63.405H6.10714V69.5122H0V63.405ZM0 57.2979H6.10714V63.405H0V57.2979ZM36.6429 38.9765H42.75V45.0836H36.6429V38.9765ZM48.873 8.44077H61.0873V20.655H48.873V8.44077ZM48.873 26.7622H61.0873V69.5122H48.873V26.7622ZM67.2422 57.2979H73.3493V63.405H67.2422V57.2979ZM67.2422 51.1908H73.3493V57.2979H67.2422V51.1908ZM73.3493 51.1908H79.4565V57.2979H73.3493V51.1908ZM73.3493 57.2979H79.4565V63.405H73.3493V57.2979ZM73.3493 45.0836H79.4565V51.1908H73.3493V45.0836ZM79.4565 45.0836H85.5636V51.1908H79.4565V45.0836ZM91.6708 45.0836H97.7779V51.1908H91.6708V45.0836ZM97.7779 45.0836H103.885V51.1908H97.7779V45.0836ZM97.7779 57.2979H103.885V63.405H97.7779V57.2979ZM103.885 57.2979H109.992V63.405H103.885V57.2979ZM103.885 51.1908H109.992V57.2979H103.885V51.1908ZM79.4565 38.9765H85.5636V45.0836H79.4565V38.9765ZM85.5636 38.9765H91.6708V45.0836H85.5636V38.9765ZM91.6708 38.9765H97.7779V45.0836H91.6708V38.9765ZM91.6708 32.8693H97.7779V38.9765H91.6708V32.8693ZM97.7779 32.8693H103.885V38.9765H97.7779V32.8693ZM97.7779 26.7622H103.885V32.8693H97.7779V26.7622ZM97.7779 20.655H103.885V26.7622H97.7779V20.655ZM103.885 20.655H109.992V26.7622H103.885V20.655ZM103.885 26.7622H109.992V32.8693H103.885V26.7622ZM79.4565 32.8693H85.5636V38.9765H79.4565V32.8693ZM73.3493 32.8693H79.4565V38.9765H73.3493V32.8693ZM73.3493 26.7622H79.4565V32.8693H73.3493V26.7622ZM73.3493 20.655H79.4565V26.7622H73.3493V20.655ZM67.2422 20.655H73.3493V26.7622H67.2422V20.655ZM67.2422 26.7622H73.3493V32.8693H67.2422V26.7622ZM79.4565 51.1908H85.5636V57.2979H79.4565V51.1908ZM91.6708 51.1908H97.7779V57.2979H91.6708V51.1908ZM97.7779 51.1908H103.885V57.2979H97.7779V51.1908ZM79.4565 26.7622H85.5636V32.8693H79.4565V26.7622ZM91.6708 26.7622H97.7779V32.8693H91.6708V26.7622ZM85.5636 32.8693H91.6708V38.9765H85.5636V32.8693ZM85.5636 45.0836H91.6708V51.1908H85.5636V45.0836ZM67.2422 63.405H73.3493V69.5122H67.2422V63.405ZM73.3493 63.405H79.4565V69.5122H73.3493V63.405ZM97.7779 63.405H103.885V69.5122H97.7779V63.405ZM103.885 63.405H109.992V69.5122H103.885V63.405Z" fill="#8BA4B0"/>
<path d="M152.262 33.3659V36.1463H149.481V33.3659H152.262ZM155.042 33.3659V36.1463H152.262V33.3659H155.042ZM157.823 33.3659V36.1463H155.042V33.3659H157.823ZM160.603 33.3659V36.1463H157.823V33.3659H160.603ZM163.384 33.3659V36.1463H160.603V33.3659H163.384ZM163.384 30.5854V33.3659H160.603V30.5854H163.384ZM163.384 27.8049V30.5854H160.603V27.8049H163.384ZM160.603 27.8049V30.5854H157.823V27.8049H160.603ZM157.823 27.8049V30.5854H155.042V27.8049H157.823ZM155.042 27.8049V30.5854H152.262V27.8049H155.042ZM155.042 30.5854V33.3659H152.262V30.5854H155.042ZM152.262 30.5854V33.3659H149.481V30.5854H152.262ZM157.823 30.5854V33.3659H155.042V30.5854H157.823ZM160.603 30.5854V33.3659H157.823V30.5854H160.603ZM152.262 27.8049V30.5854H149.481V27.8049H152.262ZM149.481 27.8049V30.5854H146.701V27.8049H149.481ZM149.481 25.0244V27.8049H146.701V25.0244H149.481ZM152.262 25.0244V27.8049H149.481V25.0244H152.262ZM155.042 25.0244V27.8049H152.262V25.0244H155.042ZM157.823 25.0244V27.8049H155.042V25.0244H157.823ZM160.603 25.0244V27.8049H157.823V25.0244H160.603ZM160.603 22.2439V25.0244H157.823V22.2439H160.603ZM157.823 22.2439V25.0244H155.042V22.2439H157.823ZM155.042 22.2439V25.0244H152.262V22.2439H155.042ZM152.262 22.2439V25.0244H149.481V22.2439H152.262ZM149.481 22.2439V25.0244H146.701V22.2439H149.481ZM155.042 19.4634V22.2439H152.262V19.4634H155.042ZM157.823 19.4634V22.2439H155.042V19.4634H157.823ZM152.262 19.4634V22.2439H149.481V19.4634H152.262ZM152.262 16.6829V19.4634H149.481V16.6829H152.262ZM149.481 16.6829V19.4634H146.701V16.6829H149.481ZM149.481 19.4634V22.2439H146.701V19.4634H149.481ZM146.701 19.4634V22.2439H143.92V19.4634H146.701ZM146.701 16.6829V19.4634H143.92V16.6829H146.701ZM146.701 22.2439V25.0244H143.92V22.2439H146.701ZM143.92 22.2439V25.0244H141.14V22.2439H143.92ZM143.92 25.0244V27.8049H141.14V25.0244H143.92ZM146.701 25.0244V27.8049H143.92V25.0244H146.701ZM141.14 25.0244V27.8049H138.359V25.0244H141.14ZM141.14 22.2439V25.0244H138.359V22.2439H141.14ZM141.14 19.4634V22.2439H138.359V19.4634H141.14ZM141.14 16.6829V19.4634H138.359V16.6829H141.14ZM143.92 16.6829V19.4634H141.14V16.6829H143.92ZM143.92 19.4634V22.2439H141.14V19.4634H143.92ZM138.359 16.6829V19.4634H135.579V16.6829H138.359ZM135.579 16.6829V19.4634H132.798V16.6829H135.579ZM132.798 16.6829V19.4634H130.018V16.6829H132.798ZM132.798 19.4634V22.2439H130.018V19.4634H132.798ZM132.798 22.2439V25.0244H130.018V22.2439H132.798ZM132.798 25.0244V27.8049H130.018V25.0244H132.798ZM135.579 25.0244V27.8049H132.798V25.0244H135.579ZM138.359 25.0244V27.8049H135.579V25.0244H138.359ZM138.359 22.2439V25.0244H135.579V22.2439H138.359ZM138.359 19.4634V22.2439H135.579V19.4634H138.359ZM135.579 19.4634V22.2439H132.798V19.4634H135.579ZM135.579 22.2439V25.0244H132.798V22.2439H135.579ZM130.018 22.2439V25.0244H127.237V22.2439H130.018ZM130.018 19.4634V22.2439H127.237V19.4634H130.018ZM127.237 19.4634V22.2439H124.457V19.4634H127.237ZM127.237 22.2439V25.0244H124.457V22.2439H127.237ZM124.457 22.2439V25.0244H121.676V22.2439H124.457ZM124.457 25.0244V27.8049H121.676V25.0244H124.457ZM124.457 27.8049V30.5854H121.676V27.8049H124.457ZM127.237 27.8049V30.5854H124.457V27.8049H127.237ZM127.237 25.0244V27.8049H124.457V25.0244H127.237ZM130.018 25.0244V27.8049H127.237V25.0244H130.018ZM130.018 27.8049V30.5854H127.237V27.8049H130.018ZM132.798 27.8049V30.5854H130.018V27.8049H132.798ZM135.579 27.8049V30.5854H132.798V27.8049H135.579ZM121.676 27.8049V30.5854H118.896V27.8049H121.676ZM121.676 30.5854V33.3659H118.896V30.5854H121.676ZM121.676 33.3659V36.1463H118.896V33.3659H121.676ZM121.676 36.1463V38.9268H118.896V36.1463H121.676ZM121.676 38.9268V41.7073H118.896V38.9268H121.676ZM121.676 41.7073V44.4878H118.896V41.7073H121.676ZM121.676 44.4878V47.2683H118.896V44.4878H121.676ZM121.676 47.2683V50.0488H118.896V47.2683H121.676ZM121.676 50.0488V52.8293H118.896V50.0488H121.676ZM121.676 52.8293V55.6098H118.896V52.8293H121.676ZM124.457 52.8293V55.6098H121.676V52.8293H124.457ZM124.457 55.6098V58.3902H121.676V55.6098H124.457ZM121.676 55.6098V58.3902H118.896V55.6098H121.676ZM127.237 55.6098V58.3902H124.457V55.6098H127.237ZM130.018 55.6098V58.3902H127.237V55.6098H130.018ZM132.798 55.6098V58.3902H130.018V55.6098H132.798ZM135.579 55.6098V58.3902H132.798V55.6098H135.579ZM132.798 52.8293V55.6098H130.018V52.8293H132.798ZM132.798 50.0488V52.8293H130.018V50.0488H132.798ZM132.798 47.2683V50.0488H130.018V47.2683H132.798ZM132.798 44.4878V47.2683H130.018V44.4878H132.798ZM132.798 41.7073V44.4878H130.018V41.7073H132.798ZM132.798 38.9268V41.7073H130.018V38.9268H132.798ZM132.798 36.1463V38.9268H130.018V36.1463H132.798ZM132.798 33.3659V36.1463H130.018V33.3659H132.798ZM132.798 30.5854V33.3659H130.018V30.5854H132.798ZM130.018 30.5854V33.3659H127.237V30.5854H130.018ZM127.237 30.5854V33.3659H124.457V30.5854H127.237ZM124.457 30.5854V33.3659H121.676V30.5854H124.457ZM124.457 33.3659V36.1463H121.676V33.3659H124.457ZM124.457 36.1463V38.9268H121.676V36.1463H124.457ZM124.457 38.9268V41.7073H121.676V38.9268H124.457ZM124.457 41.7073V44.4878H121.676V41.7073H124.457ZM124.457 44.4878V47.2683H121.676V44.4878H124.457ZM124.457 47.2683V50.0488H121.676V47.2683H124.457ZM124.457 50.0488V52.8293H121.676V50.0488H124.457ZM127.237 52.8293V55.6098H124.457V52.8293H127.237ZM130.018 52.8293V55.6098H127.237V52.8293H130.018ZM130.018 50.0488V52.8293H127.237V50.0488H130.018ZM130.018 47.2683V50.0488H127.237V47.2683H130.018ZM130.018 44.4878V47.2683H127.237V44.4878H130.018ZM130.018 41.7073V44.4878H127.237V41.7073H130.018ZM127.237 41.7073V44.4878H124.457V41.7073H127.237ZM127.237 38.9268V41.7073H124.457V38.9268H127.237ZM127.237 36.1463V38.9268H124.457V36.1463H127.237ZM127.237 33.3659V36.1463H124.457V33.3659H127.237ZM130.018 33.3659V36.1463H127.237V33.3659H130.018ZM130.018 36.1463V38.9268H127.237V36.1463H130.018ZM130.018 38.9268V41.7073H127.237V38.9268H130.018ZM127.237 47.2683V50.0488H124.457V47.2683H127.237ZM127.237 50.0488V52.8293H124.457V50.0488H127.237ZM127.237 44.4878V47.2683H124.457V44.4878H127.237ZM152.262 52.8293V55.6098H149.481V52.8293H152.262ZM155.042 52.8293V55.6098H152.262V52.8293H155.042ZM157.823 52.8293V55.6098H155.042V52.8293H157.823ZM160.603 52.8293V55.6098H157.823V52.8293H160.603ZM163.384 52.8293V55.6098H160.603V52.8293H163.384ZM163.384 55.6098V58.3902H160.603V55.6098H163.384ZM160.603 55.6098V58.3902H157.823V55.6098H160.603ZM157.823 55.6098V58.3902H155.042V55.6098H157.823ZM155.042 55.6098V58.3902H152.262V55.6098H155.042ZM152.262 55.6098V58.3902H149.481V55.6098H152.262ZM149.481 55.6098V58.3902H146.701V55.6098H149.481ZM149.481 58.3902V61.1707H146.701V58.3902H149.481ZM152.262 58.3902V61.1707H149.481V58.3902H152.262ZM155.042 58.3902V61.1707H152.262V58.3902H155.042ZM157.823 58.3902V61.1707H155.042V58.3902H157.823ZM157.823 61.1707V63.9512H155.042V61.1707H157.823ZM160.603 61.1707V63.9512H157.823V61.1707H160.603ZM160.603 58.3902V61.1707H157.823V58.3902H160.603ZM157.823 63.9512V66.7317H155.042V63.9512H157.823ZM155.042 63.9512V66.7317H152.262V63.9512H155.042ZM155.042 61.1707V63.9512H152.262V61.1707H155.042ZM152.262 61.1707V63.9512H149.481V61.1707H152.262ZM152.262 63.9512V66.7317H149.481V63.9512H152.262ZM152.262 66.7317V69.5122H149.481V66.7317H152.262ZM149.481 66.7317V69.5122H146.701V66.7317H149.481ZM146.701 66.7317V69.5122H143.92V66.7317H146.701ZM143.92 66.7317V69.5122H141.14V66.7317H143.92ZM141.14 66.7317V69.5122H138.359V66.7317H141.14ZM138.359 66.7317V69.5122H135.579V66.7317H138.359ZM135.579 66.7317V69.5122H132.798V66.7317H135.579ZM132.798 66.7317V69.5122H130.018V66.7317H132.798ZM135.579 63.9512V66.7317H132.798V63.9512H135.579ZM138.359 63.9512V66.7317H135.579V63.9512H138.359ZM141.14 63.9512V66.7317H138.359V63.9512H141.14ZM143.92 63.9512V66.7317H141.14V63.9512H143.92ZM146.701 63.9512V66.7317H143.92V63.9512H146.701ZM149.481 63.9512V66.7317H146.701V63.9512H149.481ZM149.481 61.1707V63.9512H146.701V61.1707H149.481ZM146.701 61.1707V63.9512H143.92V61.1707H146.701ZM143.92 61.1707V63.9512H141.14V61.1707H143.92ZM141.14 61.1707V63.9512H138.359V61.1707H141.14ZM138.359 61.1707V63.9512H135.579V61.1707H138.359ZM135.579 61.1707V63.9512H132.798V61.1707H135.579ZM132.798 63.9512V66.7317H130.018V63.9512H132.798ZM130.018 63.9512V66.7317H127.237V63.9512H130.018ZM127.237 63.9512V66.7317H124.457V63.9512H127.237ZM127.237 61.1707V63.9512H124.457V61.1707H127.237ZM124.457 61.1707V63.9512H121.676V61.1707H124.457ZM124.457 58.3902V61.1707H121.676V58.3902H124.457ZM127.237 58.3902V61.1707H124.457V58.3902H127.237ZM130.018 58.3902V61.1707H127.237V58.3902H130.018ZM132.798 58.3902V61.1707H130.018V58.3902H132.798ZM135.579 58.3902V61.1707H132.798V58.3902H135.579ZM138.359 58.3902V61.1707H135.579V58.3902H138.359ZM141.14 58.3902V61.1707H138.359V58.3902H141.14ZM143.92 58.3902V61.1707H141.14V58.3902H143.92ZM146.701 58.3902V61.1707H143.92V58.3902H146.701ZM132.798 61.1707V63.9512H130.018V61.1707H132.798ZM130.018 61.1707V63.9512H127.237V61.1707H130.018ZM163.384 36.1463V38.9268H160.603V36.1463H163.384ZM160.603 36.1463V38.9268H157.823V36.1463H160.603ZM157.823 36.1463V38.9268H155.042V36.1463H157.823ZM155.042 36.1463V38.9268H152.262V36.1463H155.042ZM152.262 36.1463V38.9268H149.481V36.1463H152.262ZM163.384 38.9268V41.7073H160.603V38.9268H163.384ZM157.823 38.9268V41.7073H155.042V38.9268H157.823ZM155.042 38.9268V41.7073H152.262V38.9268H155.042ZM149.481 38.9268V41.7073H146.701V38.9268H149.481ZM146.701 38.9268V41.7073H143.92V38.9268H146.701ZM143.92 38.9268V41.7073H141.14V38.9268H143.92ZM141.14 38.9268V41.7073H138.359V38.9268H141.14ZM138.359 38.9268V41.7073H135.579V38.9268H138.359ZM135.579 38.9268V41.7073H132.798V38.9268H135.579ZM152.262 38.9268V41.7073H149.481V38.9268H152.262ZM160.603 38.9268V41.7073H157.823V38.9268H160.603ZM163.384 41.7073V44.4878H160.603V41.7073H163.384ZM160.603 41.7073V44.4878H157.823V41.7073H160.603ZM157.823 41.7073V44.4878H155.042V41.7073H157.823ZM155.042 41.7073V44.4878H152.262V41.7073H155.042ZM152.262 41.7073V44.4878H149.481V41.7073H152.262ZM149.481 41.7073V44.4878H146.701V41.7073H149.481ZM146.701 41.7073V44.4878H143.92V41.7073H146.701ZM143.92 41.7073V44.4878H141.14V41.7073H143.92ZM141.14 41.7073V44.4878H138.359V41.7073H141.14ZM138.359 41.7073V44.4878H135.579V41.7073H138.359ZM135.579 41.7073V44.4878H132.798V41.7073H135.579ZM135.579 44.4878V47.2683H132.798V44.4878H135.579ZM138.359 44.4878V47.2683H135.579V44.4878H138.359ZM141.14 44.4878V47.2683H138.359V44.4878H141.14ZM146.701 44.4878V47.2683H143.92V44.4878H146.701ZM149.481 44.4878V47.2683H146.701V44.4878H149.481ZM152.262 44.4878V47.2683H149.481V44.4878H152.262ZM155.042 44.4878V47.2683H152.262V44.4878H155.042ZM157.823 44.4878V47.2683H155.042V44.4878H157.823ZM160.603 44.4878V47.2683H157.823V44.4878H160.603ZM163.384 44.4878V47.2683H160.603V44.4878H163.384ZM143.92 44.4878V47.2683H141.14V44.4878H143.92ZM202.359 33.3659V36.1463H199.579V33.3659H202.359ZM205.14 33.3659V36.1463H202.359V33.3659H205.14ZM207.92 33.3659V36.1463H205.14V33.3659H207.92ZM210.701 33.3659V36.1463H207.92V33.3659H210.701ZM213.481 33.3659V36.1463H210.701V33.3659H213.481ZM213.481 30.5854V33.3659H210.701V30.5854H213.481ZM213.481 27.8049V30.5854H210.701V27.8049H213.481ZM210.701 27.8049V30.5854H207.92V27.8049H210.701ZM207.92 27.8049V30.5854H205.14V27.8049H207.92ZM205.14 27.8049V30.5854H202.359V27.8049H205.14ZM205.14 30.5854V33.3659H202.359V30.5854H205.14ZM202.359 30.5854V33.3659H199.579V30.5854H202.359ZM207.92 30.5854V33.3659H205.14V30.5854H207.92ZM210.701 30.5854V33.3659H207.92V30.5854H210.701ZM202.359 27.8049V30.5854H199.579V27.8049H202.359ZM199.579 27.8049V30.5854H196.798V27.8049H199.579ZM199.579 25.0244V27.8049H196.798V25.0244H199.579ZM202.359 25.0244V27.8049H199.579V25.0244H202.359ZM205.14 25.0244V27.8049H202.359V25.0244H205.14ZM207.92 25.0244V27.8049H205.14V25.0244H207.92ZM210.701 25.0244V27.8049H207.92V25.0244H210.701ZM210.701 22.2439V25.0244H207.92V22.2439H210.701ZM207.92 22.2439V25.0244H205.14V22.2439H207.92ZM205.14 22.2439V25.0244H202.359V22.2439H205.14ZM202.359 22.2439V25.0244H199.579V22.2439H202.359ZM199.579 22.2439V25.0244H196.798V22.2439H199.579ZM205.14 19.4634V22.2439H202.359V19.4634H205.14ZM207.92 19.4634V22.2439H205.14V19.4634H207.92ZM202.359 19.4634V22.2439H199.579V19.4634H202.359ZM202.359 16.6829V19.4634H199.579V16.6829H202.359ZM199.579 16.6829V19.4634H196.798V16.6829H199.579ZM199.579 19.4634V22.2439H196.798V19.4634H199.579ZM196.798 19.4634V22.2439H194.018V19.4634H196.798ZM196.798 16.6829V19.4634H194.018V16.6829H196.798ZM196.798 22.2439V25.0244H194.018V22.2439H196.798ZM194.018 22.2439V25.0244H191.237V22.2439H194.018ZM194.018 25.0244V27.8049H191.237V25.0244H194.018ZM196.798 25.0244V27.8049H194.018V25.0244H196.798ZM191.237 25.0244V27.8049H188.457V25.0244H191.237ZM191.237 22.2439V25.0244H188.457V22.2439H191.237ZM191.237 19.4634V22.2439H188.457V19.4634H191.237ZM191.237 16.6829V19.4634H188.457V16.6829H191.237ZM194.018 16.6829V19.4634H191.237V16.6829H194.018ZM194.018 19.4634V22.2439H191.237V19.4634H194.018ZM188.457 16.6829V19.4634H185.676V16.6829H188.457ZM185.676 16.6829V19.4634H182.896V16.6829H185.676ZM182.896 16.6829V19.4634H180.115V16.6829H182.896ZM182.896 19.4634V22.2439H180.115V19.4634H182.896ZM182.896 22.2439V25.0244H180.115V22.2439H182.896ZM182.896 25.0244V27.8049H180.115V25.0244H182.896ZM185.676 25.0244V27.8049H182.896V25.0244H185.676ZM188.457 25.0244V27.8049H185.676V25.0244H188.457ZM188.457 22.2439V25.0244H185.676V22.2439H188.457ZM188.457 19.4634V22.2439H185.676V19.4634H188.457ZM185.676 19.4634V22.2439H182.896V19.4634H185.676ZM185.676 22.2439V25.0244H182.896V22.2439H185.676ZM180.115 22.2439V25.0244H177.335V22.2439H180.115ZM180.115 19.4634V22.2439H177.335V19.4634H180.115ZM177.335 19.4634V22.2439H174.554V19.4634H177.335ZM177.335 22.2439V25.0244H174.554V22.2439H177.335ZM174.554 22.2439V25.0244H171.774V22.2439H174.554ZM174.554 25.0244V27.8049H171.774V25.0244H174.554ZM174.554 27.8049V30.5854H171.774V27.8049H174.554ZM177.335 27.8049V30.5854H174.554V27.8049H177.335ZM177.335 25.0244V27.8049H174.554V25.0244H177.335ZM180.115 25.0244V27.8049H177.335V25.0244H180.115ZM180.115 27.8049V30.5854H177.335V27.8049H180.115ZM182.896 27.8049V30.5854H180.115V27.8049H182.896ZM185.676 27.8049V30.5854H182.896V27.8049H185.676ZM171.774 27.8049V30.5854H168.993V27.8049H171.774ZM171.774 30.5854V33.3659H168.993V30.5854H171.774ZM171.774 33.3659V36.1463H168.993V33.3659H171.774ZM171.774 36.1463V38.9268H168.993V36.1463H171.774ZM171.774 38.9268V41.7073H168.993V38.9268H171.774ZM171.774 41.7073V44.4878H168.993V41.7073H171.774ZM171.774 44.4878V47.2683H168.993V44.4878H171.774ZM171.774 47.2683V50.0488H168.993V47.2683H171.774ZM171.774 50.0488V52.8293H168.993V50.0488H171.774ZM171.774 52.8293V55.6098H168.993V52.8293H171.774ZM174.554 52.8293V55.6098H171.774V52.8293H174.554ZM174.554 55.6098V58.3902H171.774V55.6098H174.554ZM171.774 55.6098V58.3902H168.993V55.6098H171.774ZM177.335 55.6098V58.3902H174.554V55.6098H177.335ZM180.115 55.6098V58.3902H177.335V55.6098H180.115ZM182.896 55.6098V58.3902H180.115V55.6098H182.896ZM185.676 55.6098V58.3902H182.896V55.6098H185.676ZM182.896 52.8293V55.6098H180.115V52.8293H182.896ZM182.896 50.0488V52.8293H180.115V50.0488H182.896ZM182.896 47.2683V50.0488H180.115V47.2683H182.896ZM182.896 44.4878V47.2683H180.115V44.4878H182.896ZM182.896 41.7073V44.4878H180.115V41.7073H182.896ZM182.896 38.9268V41.7073H180.115V38.9268H182.896ZM182.896 36.1463V38.9268H180.115V36.1463H182.896ZM182.896 33.3659V36.1463H180.115V33.3659H182.896ZM182.896 30.5854V33.3659H180.115V30.5854H182.896ZM180.115 30.5854V33.3659H177.335V30.5854H180.115ZM177.335 30.5854V33.3659H174.554V30.5854H177.335ZM174.554 30.5854V33.3659H171.774V30.5854H174.554ZM174.554 33.3659V36.1463H171.774V33.3659H174.554ZM174.554 36.1463V38.9268H171.774V36.1463H174.554ZM174.554 38.9268V41.7073H171.774V38.9268H174.554ZM174.554 41.7073V44.4878H171.774V41.7073H174.554ZM174.554 44.4878V47.2683H171.774V44.4878H174.554ZM174.554 47.2683V50.0488H171.774V47.2683H174.554ZM174.554 50.0488V52.8293H171.774V50.0488H174.554ZM177.335 52.8293V55.6098H174.554V52.8293H177.335ZM180.115 52.8293V55.6098H177.335V52.8293H180.115ZM180.115 50.0488V52.8293H177.335V50.0488H180.115ZM180.115 47.2683V50.0488H177.335V47.2683H180.115ZM180.115 44.4878V47.2683H177.335V44.4878H180.115ZM180.115 41.7073V44.4878H177.335V41.7073H180.115ZM177.335 41.7073V44.4878H174.554V41.7073H177.335ZM177.335 38.9268V41.7073H174.554V38.9268H177.335ZM177.335 36.1463V38.9268H174.554V36.1463H177.335ZM177.335 33.3659V36.1463H174.554V33.3659H177.335ZM180.115 33.3659V36.1463H177.335V33.3659H180.115ZM180.115 36.1463V38.9268H177.335V36.1463H180.115ZM180.115 38.9268V41.7073H177.335V38.9268H180.115ZM177.335 47.2683V50.0488H174.554V47.2683H177.335ZM177.335 50.0488V52.8293H174.554V50.0488H177.335ZM177.335 44.4878V47.2683H174.554V44.4878H177.335ZM202.359 50.0488V52.8293H199.579V50.0488H202.359ZM202.359 52.8293V55.6098H199.579V52.8293H202.359ZM205.14 52.8293V55.6098H202.359V52.8293H205.14ZM207.92 52.8293V55.6098H205.14V52.8293H207.92ZM210.701 52.8293V55.6098H207.92V52.8293H210.701ZM213.481 52.8293V55.6098H210.701V52.8293H213.481ZM213.481 50.0488V52.8293H210.701V50.0488H213.481ZM210.701 50.0488V52.8293H207.92V50.0488H210.701ZM207.92 50.0488V52.8293H205.14V50.0488H207.92ZM205.14 50.0488V52.8293H202.359V50.0488H205.14ZM213.481 55.6098V58.3902H210.701V55.6098H213.481ZM210.701 55.6098V58.3902H207.92V55.6098H210.701ZM207.92 55.6098V58.3902H205.14V55.6098H207.92ZM205.14 55.6098V58.3902H202.359V55.6098H205.14ZM202.359 55.6098V58.3902H199.579V55.6098H202.359ZM199.579 55.6098V58.3902H196.798V55.6098H199.579ZM199.579 58.3902V61.1707H196.798V58.3902H199.579ZM202.359 58.3902V61.1707H199.579V58.3902H202.359ZM205.14 58.3902V61.1707H202.359V58.3902H205.14ZM207.92 58.3902V61.1707H205.14V58.3902H207.92ZM207.92 61.1707V63.9512H205.14V61.1707H207.92ZM210.701 61.1707V63.9512H207.92V61.1707H210.701ZM210.701 58.3902V61.1707H207.92V58.3902H210.701ZM207.92 63.9512V66.7317H205.14V63.9512H207.92ZM205.14 63.9512V66.7317H202.359V63.9512H205.14ZM205.14 61.1707V63.9512H202.359V61.1707H205.14ZM202.359 61.1707V63.9512H199.579V61.1707H202.359ZM202.359 63.9512V66.7317H199.579V63.9512H202.359ZM202.359 66.7317V69.5122H199.579V66.7317H202.359ZM199.579 66.7317V69.5122H196.798V66.7317H199.579ZM196.798 66.7317V69.5122H194.018V66.7317H196.798ZM194.018 66.7317V69.5122H191.237V66.7317H194.018ZM191.237 66.7317V69.5122H188.457V66.7317H191.237ZM188.457 66.7317V69.5122H185.676V66.7317H188.457ZM185.676 66.7317V69.5122H182.896V66.7317H185.676ZM182.896 66.7317V69.5122H180.115V66.7317H182.896ZM185.676 63.9512V66.7317H182.896V63.9512H185.676ZM188.457 63.9512V66.7317H185.676V63.9512H188.457ZM191.237 63.9512V66.7317H188.457V63.9512H191.237ZM194.018 63.9512V66.7317H191.237V63.9512H194.018ZM196.798 63.9512V66.7317H194.018V63.9512H196.798ZM199.579 63.9512V66.7317H196.798V63.9512H199.579ZM199.579 61.1707V63.9512H196.798V61.1707H199.579ZM196.798 61.1707V63.9512H194.018V61.1707H196.798ZM194.018 61.1707V63.9512H191.237V61.1707H194.018ZM191.237 61.1707V63.9512H188.457V61.1707H191.237ZM188.457 61.1707V63.9512H185.676V61.1707H188.457ZM185.676 61.1707V63.9512H182.896V61.1707H185.676ZM182.896 63.9512V66.7317H180.115V63.9512H182.896ZM180.115 63.9512V66.7317H177.335V63.9512H180.115ZM177.335 63.9512V66.7317H174.554V63.9512H177.335ZM177.335 61.1707V63.9512H174.554V61.1707H177.335ZM174.554 61.1707V63.9512H171.774V61.1707H174.554ZM174.554 58.3902V61.1707H171.774V58.3902H174.554ZM177.335 58.3902V61.1707H174.554V58.3902H177.335ZM180.115 58.3902V61.1707H177.335V58.3902H180.115ZM182.896 58.3902V61.1707H180.115V58.3902H182.896ZM185.676 58.3902V61.1707H182.896V58.3902H185.676ZM188.457 58.3902V61.1707H185.676V58.3902H188.457ZM191.237 58.3902V61.1707H188.457V58.3902H191.237ZM194.018 58.3902V61.1707H191.237V58.3902H194.018ZM196.798 58.3902V61.1707H194.018V58.3902H196.798ZM182.896 61.1707V63.9512H180.115V61.1707H182.896ZM180.115 61.1707V63.9512H177.335V61.1707H180.115ZM224.652 66.7317V69.5122H221.872V66.7317H224.652ZM224.652 63.9512V66.7317H221.872V63.9512H224.652ZM224.652 61.1707V63.9512H221.872V61.1707H224.652ZM224.652 58.3902V61.1707H221.872V58.3902H224.652ZM224.652 55.6098V58.3902H221.872V55.6098H224.652ZM224.652 52.8293V55.6098H221.872V52.8293H224.652ZM224.652 50.0488V52.8293H221.872V50.0488H224.652ZM224.652 47.2683V50.0488H221.872V47.2683H224.652ZM224.652 44.4878V47.2683H221.872V44.4878H224.652ZM224.652 41.7073V44.4878H221.872V41.7073H224.652ZM224.652 38.9268V41.7073H221.872V38.9268H224.652ZM224.652 36.1463V38.9268H221.872V36.1463H224.652ZM224.652 33.3659V36.1463H221.872V33.3659H224.652ZM224.652 30.5854V33.3659H221.872V30.5854H224.652ZM224.652 27.8049V30.5854H221.872V27.8049H224.652ZM227.432 27.8049V30.5854H224.652V27.8049H227.432ZM227.432 30.5854V33.3659H224.652V30.5854H227.432ZM227.432 33.3659V36.1463H224.652V33.3659H227.432ZM227.432 36.1463V38.9268H224.652V36.1463H227.432ZM227.432 38.9268V41.7073H224.652V38.9268H227.432ZM227.432 41.7073V44.4878H224.652V41.7073H227.432ZM227.432 44.4878V47.2683H224.652V44.4878H227.432ZM230.213 47.2683V50.0488H227.432V47.2683H230.213ZM230.213 50.0488V52.8293H227.432V50.0488H230.213ZM230.213 52.8293V55.6098H227.432V52.8293H230.213ZM230.213 55.6098V58.3902H227.432V55.6098H230.213ZM230.213 58.3902V61.1707H227.432V58.3902H230.213ZM230.213 61.1707V63.9512H227.432V61.1707H230.213ZM230.213 63.9512V66.7317H227.432V63.9512H230.213ZM230.213 66.7317V69.5122H227.432V66.7317H230.213ZM232.993 66.7317V69.5122H230.213V66.7317H232.993ZM235.774 66.7317V69.5122H232.993V66.7317H235.774ZM235.774 63.9512V66.7317H232.993V63.9512H235.774ZM235.774 61.1707V63.9512H232.993V61.1707H235.774ZM235.774 58.3902V61.1707H232.993V58.3902H235.774ZM235.774 55.6098V58.3902H232.993V55.6098H235.774ZM235.774 52.8293V55.6098H232.993V52.8293H235.774ZM235.774 50.0488V52.8293H232.993V50.0488H235.774ZM235.774 47.2683V50.0488H232.993V47.2683H235.774ZM232.993 47.2683V50.0488H230.213V47.2683H232.993ZM232.993 44.4878V47.2683H230.213V44.4878H232.993ZM232.993 50.0488V52.8293H230.213V50.0488H232.993ZM232.993 52.8293V55.6098H230.213V52.8293H232.993ZM232.993 55.6098V58.3902H230.213V55.6098H232.993ZM232.993 58.3902V61.1707H230.213V58.3902H232.993ZM232.993 61.1707V63.9512H230.213V61.1707H232.993ZM232.993 63.9512V66.7317H230.213V63.9512H232.993ZM227.432 66.7317V69.5122H224.652V66.7317H227.432ZM227.432 63.9512V66.7317H224.652V63.9512H227.432ZM227.432 61.1707V63.9512H224.652V61.1707H227.432ZM227.432 58.3902V61.1707H224.652V58.3902H227.432ZM227.432 55.6098V58.3902H224.652V55.6098H227.432ZM227.432 52.8293V55.6098H224.652V52.8293H227.432ZM227.432 50.0488V52.8293H224.652V50.0488H227.432ZM227.432 47.2683V50.0488H224.652V47.2683H227.432ZM224.652 -5.00679e-06V2.78049H221.872V-5.00679e-06H224.652ZM224.652 2.78049V5.56097H221.872V2.78049H224.652ZM224.652 5.56097V8.34146H221.872V5.56097H224.652ZM224.652 8.34146V11.1219H221.872V8.34146H224.652ZM224.652 11.1219V13.9024H221.872V11.1219H224.652ZM224.652 13.9024V16.6829H221.872V13.9024H224.652ZM224.652 16.6829V19.4634H221.872V16.6829H224.652ZM224.652 19.4634V22.2439H221.872V19.4634H224.652ZM224.652 22.2439V25.0244H221.872V22.2439H224.652ZM224.652 25.0244V27.8049H221.872V25.0244H224.652ZM232.993 -5.00679e-06V2.78049H230.213V-5.00679e-06H232.993ZM232.993 2.78049V5.56097H230.213V2.78049H232.993ZM232.993 5.56097V8.34146H230.213V5.56097H232.993ZM232.993 8.34146V11.1219H230.213V8.34146H232.993ZM232.993 11.1219V13.9024H230.213V11.1219H232.993ZM232.993 13.9024V16.6829H230.213V13.9024H232.993ZM232.993 19.4634V22.2439H230.213V19.4634H232.993ZM232.993 22.2439V25.0244H230.213V22.2439H232.993ZM232.993 25.0244V27.8049H230.213V25.0244H232.993ZM232.993 27.8049V30.5854H230.213V27.8049H232.993ZM232.993 30.5854V33.3659H230.213V30.5854H232.993ZM232.993 33.3659V36.1463H230.213V33.3659H232.993ZM232.993 36.1463V38.9268H230.213V36.1463H232.993ZM235.774 38.9268V41.7073H232.993V38.9268H235.774ZM235.774 41.7073V44.4878H232.993V41.7073H235.774ZM235.774 44.4878V47.2683H232.993V44.4878H235.774ZM235.774 36.1463V38.9268H232.993V36.1463H235.774ZM235.774 33.3659V36.1463H232.993V33.3659H235.774ZM235.774 30.5854V33.3659H232.993V30.5854H235.774ZM235.774 27.8049V30.5854H232.993V27.8049H235.774ZM235.774 25.0244V27.8049H232.993V25.0244H235.774ZM235.774 22.2439V25.0244H232.993V22.2439H235.774ZM235.774 19.4634V22.2439H232.993V19.4634H235.774ZM235.774 16.6829V19.4634H232.993V16.6829H235.774ZM235.774 13.9024V16.6829H232.993V13.9024H235.774ZM235.774 11.1219V13.9024H232.993V11.1219H235.774ZM232.993 16.6829V19.4634H230.213V16.6829H232.993ZM235.774 8.34146V11.1219H232.993V8.34146H235.774ZM235.774 5.56097V8.34146H232.993V5.56097H235.774ZM235.774 2.78049V5.56097H232.993V2.78049H235.774ZM235.774 -5.00679e-06V2.78049H232.993V-5.00679e-06H235.774ZM230.213 -5.00679e-06V2.78049H227.432V-5.00679e-06H230.213ZM227.432 -5.00679e-06V2.78049H224.652V-5.00679e-06H227.432ZM227.432 2.78049V5.56097H224.652V2.78049H227.432ZM230.213 2.78049V5.56097H227.432V2.78049H230.213ZM230.213 5.56097V8.34146H227.432V5.56097H230.213ZM230.213 8.34146V11.1219H227.432V8.34146H230.213ZM230.213 11.1219V13.9024H227.432V11.1219H230.213ZM230.213 13.9024V16.6829H227.432V13.9024H230.213ZM230.213 16.6829V19.4634H227.432V16.6829H230.213ZM230.213 19.4634V22.2439H227.432V19.4634H230.213ZM227.432 22.2439V25.0244H224.652V22.2439H227.432ZM227.432 25.0244V27.8049H224.652V25.0244H227.432ZM227.432 19.4634V22.2439H224.652V19.4634H227.432ZM227.432 16.6829V19.4634H224.652V16.6829H227.432ZM227.432 13.9024V16.6829H224.652V13.9024H227.432ZM227.432 11.1219V13.9024H224.652V11.1219H227.432ZM227.432 8.34146V11.1219H224.652V8.34146H227.432ZM227.432 5.56097V8.34146H224.652V5.56097H227.432ZM230.213 22.2439V25.0244H227.432V22.2439H230.213ZM230.213 25.0244V27.8049H227.432V25.0244H230.213ZM230.213 27.8049V30.5854H227.432V27.8049H230.213ZM230.213 30.5854V33.3659H227.432V30.5854H230.213ZM230.213 33.3659V36.1463H227.432V33.3659H230.213ZM230.213 36.1463V38.9268H227.432V36.1463H230.213ZM230.213 38.9268V41.7073H227.432V38.9268H230.213ZM230.213 41.7073V44.4878H227.432V41.7073H230.213ZM230.213 44.4878V47.2683H227.432V44.4878H230.213ZM232.993 41.7073V44.4878H230.213V41.7073H232.993ZM232.993 38.9268V41.7073H230.213V38.9268H232.993ZM255.237 66.7317V69.5122H252.457V66.7317H255.237ZM258.018 66.7317V69.5122H255.237V66.7317H258.018ZM260.798 66.7317V69.5122H258.018V66.7317H260.798ZM263.579 66.7317V69.5122H260.798V66.7317H263.579ZM266.359 63.9512V66.7317H263.579V63.9512H266.359ZM266.359 61.1707V63.9512H263.579V61.1707H266.359ZM266.359 66.7317V69.5122H263.579V66.7317H266.359ZM263.579 63.9512V66.7317H260.798V63.9512H263.579ZM260.798 63.9512V66.7317H258.018V63.9512H260.798ZM258.018 63.9512V66.7317H255.237V63.9512H258.018ZM255.237 63.9512V66.7317H252.457V63.9512H255.237ZM255.237 61.1707V63.9512H252.457V61.1707H255.237ZM255.237 58.3902V61.1707H252.457V58.3902H255.237ZM258.018 58.3902V61.1707H255.237V58.3902H258.018ZM260.798 58.3902V61.1707H258.018V58.3902H260.798ZM263.579 58.3902V61.1707H260.798V58.3902H263.579ZM266.359 58.3902V61.1707H263.579V58.3902H266.359ZM263.579 61.1707V63.9512H260.798V61.1707H263.579ZM260.798 61.1707V63.9512H258.018V61.1707H260.798ZM258.018 61.1707V63.9512H255.237V61.1707H258.018ZM266.359 27.8049V30.5854H263.579V27.8049H266.359ZM263.579 27.8049V30.5854H260.798V27.8049H263.579ZM258.018 27.8049V30.5854H255.237V27.8049H258.018ZM258.018 30.5854V33.3659H255.237V30.5854H258.018ZM258.018 33.3659V36.1463H255.237V33.3659H258.018ZM255.237 36.1463V38.9268H252.457V36.1463H255.237ZM255.237 38.9268V41.7073H252.457V38.9268H255.237ZM255.237 41.7073V44.4878H252.457V41.7073H255.237ZM255.237 44.4878V47.2683H252.457V44.4878H255.237ZM255.237 47.2683V50.0488H252.457V47.2683H255.237ZM255.237 50.0488V52.8293H252.457V50.0488H255.237ZM255.237 52.8293V55.6098H252.457V52.8293H255.237ZM255.237 55.6098V58.3902H252.457V55.6098H255.237ZM258.018 55.6098V58.3902H255.237V55.6098H258.018ZM260.798 55.6098V58.3902H258.018V55.6098H260.798ZM263.579 55.6098V58.3902H260.798V55.6098H263.579ZM266.359 55.6098V58.3902H263.579V55.6098H266.359ZM266.359 52.8293V55.6098H263.579V52.8293H266.359ZM266.359 47.2683V50.0488H263.579V47.2683H266.359ZM266.359 44.4878V47.2683H263.579V44.4878H266.359ZM266.359 41.7073V44.4878H263.579V41.7073H266.359ZM266.359 38.9268V41.7073H263.579V38.9268H266.359ZM266.359 36.1463V38.9268H263.579V36.1463H266.359ZM266.359 33.3659V36.1463H263.579V33.3659H266.359ZM266.359 30.5854V33.3659H263.579V30.5854H266.359ZM263.579 41.7073V44.4878H260.798V41.7073H263.579ZM263.579 47.2683V50.0488H260.798V47.2683H263.579ZM263.579 50.0488V52.8293H260.798V50.0488H263.579ZM263.579 52.8293V55.6098H260.798V52.8293H263.579ZM266.359 50.0488V52.8293H263.579V50.0488H266.359ZM263.579 36.1463V38.9268H260.798V36.1463H263.579ZM260.798 36.1463V38.9268H258.018V36.1463H260.798ZM258.018 36.1463V38.9268H255.237V36.1463H258.018ZM258.018 38.9268V41.7073H255.237V38.9268H258.018ZM258.018 41.7073V44.4878H255.237V41.7073H258.018ZM258.018 44.4878V47.2683H255.237V44.4878H258.018ZM258.018 47.2683V50.0488H255.237V47.2683H258.018ZM258.018 50.0488V52.8293H255.237V50.0488H258.018ZM258.018 52.8293V55.6098H255.237V52.8293H258.018ZM260.798 52.8293V55.6098H258.018V52.8293H260.798ZM260.798 50.0488V52.8293H258.018V50.0488H260.798ZM260.798 47.2683V50.0488H258.018V47.2683H260.798ZM260.798 44.4878V47.2683H258.018V44.4878H260.798ZM260.798 41.7073V44.4878H258.018V41.7073H260.798ZM260.798 38.9268V41.7073H258.018V38.9268H260.798ZM263.579 38.9268V41.7073H260.798V38.9268H263.579ZM263.579 44.4878V47.2683H260.798V44.4878H263.579ZM263.579 33.3659V36.1463H260.798V33.3659H263.579ZM263.579 30.5854V33.3659H260.798V30.5854H263.579ZM260.798 30.5854V33.3659H258.018V30.5854H260.798ZM260.798 33.3659V36.1463H258.018V33.3659H260.798ZM255.237 33.3659V36.1463H252.457V33.3659H255.237ZM255.237 30.5854V33.3659H252.457V30.5854H255.237ZM255.237 27.8049V30.5854H252.457V27.8049H255.237ZM260.798 27.8049V30.5854H258.018V27.8049H260.798ZM255.237 16.6829V19.4634H252.457V16.6829H255.237ZM255.237 19.4634V22.2439H252.457V19.4634H255.237ZM258.018 19.4634V22.2439H255.237V19.4634H258.018ZM260.798 19.4634V22.2439H258.018V19.4634H260.798ZM260.798 22.2439V25.0244H258.018V22.2439H260.798ZM263.579 22.2439V25.0244H260.798V22.2439H263.579ZM263.579 25.0244V27.8049H260.798V25.0244H263.579ZM260.798 25.0244V27.8049H258.018V25.0244H260.798ZM258.018 25.0244V27.8049H255.237V25.0244H258.018ZM258.018 22.2439V25.0244H255.237V22.2439H258.018ZM255.237 22.2439V25.0244H252.457V22.2439H255.237ZM252.457 22.2439V25.0244H249.676V22.2439H252.457ZM252.457 25.0244V27.8049H249.676V25.0244H252.457ZM255.237 25.0244V27.8049H252.457V25.0244H255.237ZM252.457 27.8049V30.5854H249.676V27.8049H252.457ZM249.676 25.0244V27.8049H246.896V25.0244H249.676ZM249.676 22.2439V25.0244H246.896V22.2439H249.676ZM249.676 19.4634V22.2439H246.896V19.4634H249.676ZM249.676 16.6829V19.4634H246.896V16.6829H249.676ZM252.457 16.6829V19.4634H249.676V16.6829H252.457ZM252.457 19.4634V22.2439H249.676V19.4634H252.457ZM246.896 16.6829V19.4634H244.115V16.6829H246.896ZM246.896 19.4634V22.2439H244.115V19.4634H246.896ZM246.896 22.2439V25.0244H244.115V22.2439H246.896ZM246.896 25.0244V27.8049H244.115V25.0244H246.896ZM244.115 16.6829V19.4634H241.335V16.6829H244.115ZM244.115 19.4634V22.2439H241.335V19.4634H244.115ZM241.335 19.4634V22.2439H238.554V19.4634H241.335ZM241.335 22.2439V25.0244H238.554V22.2439H241.335ZM238.554 22.2439V25.0244H235.774V22.2439H238.554ZM238.554 25.0244V27.8049H235.774V25.0244H238.554ZM241.335 25.0244V27.8049H238.554V25.0244H241.335ZM244.115 25.0244V27.8049H241.335V25.0244H244.115ZM244.115 22.2439V25.0244H241.335V22.2439H244.115ZM238.554 27.8049V30.5854H235.774V27.8049H238.554ZM241.335 16.6829V19.4634H238.554V16.6829H241.335ZM238.554 19.4634V22.2439H235.774V19.4634H238.554ZM305.338 33.3659V36.1463H302.557V33.3659H305.338ZM308.118 33.3659V36.1463H305.338V33.3659H308.118ZM310.899 33.3659V36.1463H308.118V33.3659H310.899ZM313.679 33.3659V36.1463H310.899V33.3659H313.679ZM316.46 33.3659V36.1463H313.679V33.3659H316.46ZM316.46 30.5854V33.3659H313.679V30.5854H316.46ZM316.46 27.8049V30.5854H313.679V27.8049H316.46ZM313.679 27.8049V30.5854H310.899V27.8049H313.679ZM310.899 27.8049V30.5854H308.118V27.8049H310.899ZM308.118 27.8049V30.5854H305.338V27.8049H308.118ZM308.118 30.5854V33.3659H305.338V30.5854H308.118ZM305.338 30.5854V33.3659H302.557V30.5854H305.338ZM310.899 30.5854V33.3659H308.118V30.5854H310.899ZM313.679 30.5854V33.3659H310.899V30.5854H313.679ZM305.338 27.8049V30.5854H302.557V27.8049H305.338ZM302.557 27.8049V30.5854H299.777V27.8049H302.557ZM302.557 25.0244V27.8049H299.777V25.0244H302.557ZM305.338 25.0244V27.8049H302.557V25.0244H305.338ZM308.118 25.0244V27.8049H305.338V25.0244H308.118ZM310.899 25.0244V27.8049H308.118V25.0244H310.899ZM313.679 25.0244V27.8049H310.899V25.0244H313.679ZM313.679 22.2439V25.0244H310.899V22.2439H313.679ZM310.899 22.2439V25.0244H308.118V22.2439H310.899ZM308.118 22.2439V25.0244H305.338V22.2439H308.118ZM305.338 22.2439V25.0244H302.557V22.2439H305.338ZM302.557 22.2439V25.0244H299.777V22.2439H302.557ZM308.118 19.4634V22.2439H305.338V19.4634H308.118ZM310.899 19.4634V22.2439H308.118V19.4634H310.899ZM305.338 19.4634V22.2439H302.557V19.4634H305.338ZM305.338 16.6829V19.4634H302.557V16.6829H305.338ZM302.557 16.6829V19.4634H299.777V16.6829H302.557ZM302.557 19.4634V22.2439H299.777V19.4634H302.557ZM299.777 19.4634V22.2439H296.996V19.4634H299.777ZM299.777 16.6829V19.4634H296.996V16.6829H299.777ZM299.777 22.2439V25.0244H296.996V22.2439H299.777ZM296.996 22.2439V25.0244H294.216V22.2439H296.996ZM296.996 25.0244V27.8049H294.216V25.0244H296.996ZM299.777 25.0244V27.8049H296.996V25.0244H299.777ZM294.216 25.0244V27.8049H291.435V25.0244H294.216ZM294.216 22.2439V25.0244H291.435V22.2439H294.216ZM294.216 19.4634V22.2439H291.435V19.4634H294.216ZM294.216 16.6829V19.4634H291.435V16.6829H294.216ZM296.996 16.6829V19.4634H294.216V16.6829H296.996ZM296.996 19.4634V22.2439H294.216V19.4634H296.996ZM291.435 16.6829V19.4634H288.655V16.6829H291.435ZM288.655 16.6829V19.4634H285.874V16.6829H288.655ZM285.874 16.6829V19.4634H283.094V16.6829H285.874ZM285.874 19.4634V22.2439H283.094V19.4634H285.874ZM285.874 22.2439V25.0244H283.094V22.2439H285.874ZM285.874 25.0244V27.8049H283.094V25.0244H285.874ZM288.655 25.0244V27.8049H285.874V25.0244H288.655ZM291.435 25.0244V27.8049H288.655V25.0244H291.435ZM291.435 22.2439V25.0244H288.655V22.2439H291.435ZM291.435 19.4634V22.2439H288.655V19.4634H291.435ZM288.655 19.4634V22.2439H285.874V19.4634H288.655ZM288.655 22.2439V25.0244H285.874V22.2439H288.655ZM283.094 22.2439V25.0244H280.313V22.2439H283.094ZM283.094 19.4634V22.2439H280.313V19.4634H283.094ZM280.313 19.4634V22.2439H277.533V19.4634H280.313ZM280.313 22.2439V25.0244H277.533V22.2439H280.313ZM277.533 22.2439V25.0244H274.752V22.2439H277.533ZM277.533 25.0244V27.8049H274.752V25.0244H277.533ZM277.533 27.8049V30.5854H274.752V27.8049H277.533ZM280.313 27.8049V30.5854H277.533V27.8049H280.313ZM280.313 25.0244V27.8049H277.533V25.0244H280.313ZM283.094 25.0244V27.8049H280.313V25.0244H283.094ZM283.094 27.8049V30.5854H280.313V27.8049H283.094ZM285.874 27.8049V30.5854H283.094V27.8049H285.874ZM288.655 27.8049V30.5854H285.874V27.8049H288.655ZM274.752 27.8049V30.5854H271.972V27.8049H274.752ZM274.752 30.5854V33.3659H271.972V30.5854H274.752ZM274.752 33.3659V36.1463H271.972V33.3659H274.752ZM274.752 36.1463V38.9268H271.972V36.1463H274.752ZM274.752 38.9268V41.7073H271.972V38.9268H274.752ZM274.752 41.7073V44.4878H271.972V41.7073H274.752ZM274.752 44.4878V47.2683H271.972V44.4878H274.752ZM274.752 47.2683V50.0488H271.972V47.2683H274.752ZM274.752 50.0488V52.8293H271.972V50.0488H274.752ZM274.752 52.8293V55.6098H271.972V52.8293H274.752ZM277.533 52.8293V55.6098H274.752V52.8293H277.533ZM277.533 55.6098V58.3902H274.752V55.6098H277.533ZM274.752 55.6098V58.3902H271.972V55.6098H274.752ZM280.313 55.6098V58.3902H277.533V55.6098H280.313ZM283.094 55.6098V58.3902H280.313V55.6098H283.094ZM285.874 55.6098V58.3902H283.094V55.6098H285.874ZM288.655 55.6098V58.3902H285.874V55.6098H288.655ZM285.874 52.8293V55.6098H283.094V52.8293H285.874ZM285.874 50.0488V52.8293H283.094V50.0488H285.874ZM285.874 47.2683V50.0488H283.094V47.2683H285.874ZM285.874 44.4878V47.2683H283.094V44.4878H285.874ZM285.874 41.7073V44.4878H283.094V41.7073H285.874ZM285.874 38.9268V41.7073H283.094V38.9268H285.874ZM285.874 36.1463V38.9268H283.094V36.1463H285.874ZM285.874 33.3659V36.1463H283.094V33.3659H285.874ZM285.874 30.5854V33.3659H283.094V30.5854H285.874ZM283.094 30.5854V33.3659H280.313V30.5854H283.094ZM280.313 30.5854V33.3659H277.533V30.5854H280.313ZM277.533 30.5854V33.3659H274.752V30.5854H277.533ZM277.533 33.3659V36.1463H274.752V33.3659H277.533ZM277.533 36.1463V38.9268H274.752V36.1463H277.533ZM277.533 38.9268V41.7073H274.752V38.9268H277.533ZM277.533 41.7073V44.4878H274.752V41.7073H277.533ZM277.533 44.4878V47.2683H274.752V44.4878H277.533ZM277.533 47.2683V50.0488H274.752V47.2683H277.533ZM277.533 50.0488V52.8293H274.752V50.0488H277.533ZM280.313 52.8293V55.6098H277.533V52.8293H280.313ZM283.094 52.8293V55.6098H280.313V52.8293H283.094ZM283.094 50.0488V52.8293H280.313V50.0488H283.094ZM283.094 47.2683V50.0488H280.313V47.2683H283.094ZM283.094 44.4878V47.2683H280.313V44.4878H283.094ZM283.094 41.7073V44.4878H280.313V41.7073H283.094ZM280.313 41.7073V44.4878H277.533V41.7073H280.313ZM280.313 38.9268V41.7073H277.533V38.9268H280.313ZM280.313 36.1463V38.9268H277.533V36.1463H280.313ZM280.313 33.3659V36.1463H277.533V33.3659H280.313ZM283.094 33.3659V36.1463H280.313V33.3659H283.094ZM283.094 36.1463V38.9268H280.313V36.1463H283.094ZM283.094 38.9268V41.7073H280.313V38.9268H283.094ZM280.313 47.2683V50.0488H277.533V47.2683H280.313ZM280.313 50.0488V52.8293H277.533V50.0488H280.313ZM280.313 44.4878V47.2683H277.533V44.4878H280.313ZM305.338 50.0488V52.8293H302.557V50.0488H305.338ZM305.338 52.8293V55.6098H302.557V52.8293H305.338ZM308.118 52.8293V55.6098H305.338V52.8293H308.118ZM310.899 52.8293V55.6098H308.118V52.8293H310.899ZM313.679 52.8293V55.6098H310.899V52.8293H313.679ZM316.46 52.8293V55.6098H313.679V52.8293H316.46ZM316.46 50.0488V52.8293H313.679V50.0488H316.46ZM313.679 50.0488V52.8293H310.899V50.0488H313.679ZM310.899 50.0488V52.8293H308.118V50.0488H310.899ZM308.118 50.0488V52.8293H305.338V50.0488H308.118ZM316.46 55.6098V58.3902H313.679V55.6098H316.46ZM313.679 55.6098V58.3902H310.899V55.6098H313.679ZM310.899 55.6098V58.3902H308.118V55.6098H310.899ZM308.118 55.6098V58.3902H305.338V55.6098H308.118ZM305.338 55.6098V58.3902H302.557V55.6098H305.338ZM302.557 55.6098V58.3902H299.777V55.6098H302.557ZM302.557 58.3902V61.1707H299.777V58.3902H302.557ZM305.338 58.3902V61.1707H302.557V58.3902H305.338ZM308.118 58.3902V61.1707H305.338V58.3902H308.118ZM310.899 58.3902V61.1707H308.118V58.3902H310.899ZM310.899 61.1707V63.9512H308.118V61.1707H310.899ZM313.679 61.1707V63.9512H310.899V61.1707H313.679ZM313.679 58.3902V61.1707H310.899V58.3902H313.679ZM310.899 63.9512V66.7317H308.118V63.9512H310.899ZM308.118 63.9512V66.7317H305.338V63.9512H308.118ZM308.118 61.1707V63.9512H305.338V61.1707H308.118ZM305.338 61.1707V63.9512H302.557V61.1707H305.338ZM305.338 63.9512V66.7317H302.557V63.9512H305.338ZM305.338 66.7317V69.5122H302.557V66.7317H305.338ZM302.557 66.7317V69.5122H299.777V66.7317H302.557ZM299.777 66.7317V69.5122H296.996V66.7317H299.777ZM296.996 66.7317V69.5122H294.216V66.7317H296.996ZM294.216 66.7317V69.5122H291.435V66.7317H294.216ZM291.435 66.7317V69.5122H288.655V66.7317H291.435ZM288.655 66.7317V69.5122H285.874V66.7317H288.655ZM285.874 66.7317V69.5122H283.094V66.7317H285.874ZM288.655 63.9512V66.7317H285.874V63.9512H288.655ZM291.435 63.9512V66.7317H288.655V63.9512H291.435ZM294.216 63.9512V66.7317H291.435V63.9512H294.216ZM296.996 63.9512V66.7317H294.216V63.9512H296.996ZM299.777 63.9512V66.7317H296.996V63.9512H299.777ZM302.557 63.9512V66.7317H299.777V63.9512H302.557ZM302.557 61.1707V63.9512H299.777V61.1707H302.557ZM299.777 61.1707V63.9512H296.996V61.1707H299.777ZM296.996 61.1707V63.9512H294.216V61.1707H296.996ZM294.216 61.1707V63.9512H291.435V61.1707H294.216ZM291.435 61.1707V63.9512H288.655V61.1707H291.435ZM288.655 61.1707V63.9512H285.874V61.1707H288.655ZM285.874 63.9512V66.7317H283.094V63.9512H285.874ZM283.094 63.9512V66.7317H280.313V63.9512H283.094ZM280.313 63.9512V66.7317H277.533V63.9512H280.313ZM280.313 61.1707V63.9512H277.533V61.1707H280.313ZM277.533 61.1707V63.9512H274.752V61.1707H277.533ZM277.533 58.3902V61.1707H274.752V58.3902H277.533ZM280.313 58.3902V61.1707H277.533V58.3902H280.313ZM283.094 58.3902V61.1707H280.313V58.3902H283.094ZM285.874 58.3902V61.1707H283.094V58.3902H285.874ZM288.655 58.3902V61.1707H285.874V58.3902H288.655ZM291.435 58.3902V61.1707H288.655V58.3902H291.435ZM294.216 58.3902V61.1707H291.435V58.3902H294.216ZM296.996 58.3902V61.1707H294.216V58.3902H296.996ZM299.777 58.3902V61.1707H296.996V58.3902H299.777ZM285.874 61.1707V63.9512H283.094V61.1707H285.874ZM283.094 61.1707V63.9512H280.313V61.1707H283.094ZM305.338 36.1463V38.9268H302.557V36.1463H305.338ZM305.338 38.9268V41.7073H302.557V38.9268H305.338ZM308.118 38.9268V41.7073H305.338V38.9268H308.118ZM310.899 38.9268V41.7073H308.118V38.9268H310.899ZM313.679 38.9268V41.7073H310.899V38.9268H313.679ZM316.46 38.9268V41.7073H313.679V38.9268H316.46ZM316.46 36.1463V38.9268H313.679V36.1463H316.46ZM313.679 36.1463V38.9268H310.899V36.1463H313.679ZM310.899 36.1463V38.9268H308.118V36.1463H310.899ZM308.118 36.1463V38.9268H305.338V36.1463H308.118ZM308.118 41.7073V44.4878H305.338V41.7073H308.118ZM310.899 41.7073V44.4878H308.118V41.7073H310.899ZM310.899 44.4878V47.2683H308.118V44.4878H310.899ZM313.679 44.4878V47.2683H310.899V44.4878H313.679ZM313.679 41.7073V44.4878H310.899V41.7073H313.679ZM316.46 41.7073V44.4878H313.679V41.7073H316.46ZM316.46 44.4878V47.2683H313.679V44.4878H316.46ZM316.46 47.2683V50.0488H313.679V47.2683H316.46ZM313.679 47.2683V50.0488H310.899V47.2683H313.679ZM310.899 47.2683V50.0488H308.118V47.2683H310.899ZM308.118 47.2683V50.0488H305.338V47.2683H308.118ZM308.118 44.4878V47.2683H305.338V44.4878H308.118ZM305.338 44.4878V47.2683H302.557V44.4878H305.338ZM305.338 41.7073V44.4878H302.557V41.7073H305.338ZM305.338 47.2683V50.0488H302.557V47.2683H305.338Z" fill="#8A9B7B"/>
</svg>
